<?xml version="1.0" standalone="no"?>
<!DOCTYPE svg PUBLIC "-//W3C//DTD SVG 20010904//EN"
 "http://www.w3.org/TR/2001/REC-SVG-20010904/DTD/svg10.dtd">
<svg version="1.0" xmlns="http://www.w3.org/2000/svg"
 width="700.000000pt" height="700.000000pt" viewBox="0 0 700.000000 700.000000"
 preserveAspectRatio="xMidYMid meet">
<metadata>
Created by potrace 1.14, written by Peter Selinger 2001-2017
</metadata>
<g transform="translate(0.000000,700.000000) scale(0.100000,-0.100000)"
fill="#000000" stroke="none">
<path d="M1170 3140 l0 -1970 2330 0 2330 0 0 1970 0 1970 -2330 0 -2330 0 0
-1970z m1553 347 l337 -191 -2 -155 -3 -155 -432 -252 -433 -252 0 181 1 182
255 145 254 144 -34 21 c-18 11 -133 76 -255 145 l-220 125 -1 182 0 182 98
-55 c53 -31 249 -142 435 -247z m2087 -862 l0 -145 -725 0 -725 0 0 145 0 145
725 0 725 0 0 -145z"/>
</g>
</svg>
