<?xml version="1.0" standalone="no"?>
<!DOCTYPE svg PUBLIC "-//W3C//DTD SVG 20010904//EN"
 "http://www.w3.org/TR/2001/REC-SVG-20010904/DTD/svg10.dtd">
<svg version="1.0" xmlns="http://www.w3.org/2000/svg"
 width="1000.000000pt" height="1000.000000pt" viewBox="0 0 1000.000000 1000.000000"
 preserveAspectRatio="xMidYMid meet">
<metadata>
Created by potrace 1.14, written by Peter Selinger 2001-2017
</metadata>
<g transform="translate(0.000000,1000.000000) scale(0.100000,-0.100000)"
fill="#000000" stroke="none">
<path d="M4750 9364 c-965 -67 -1815 -404 -2545 -1008 -154 -127 -434 -407
-561 -561 -346 -418 -601 -869 -773 -1367 l-50 -148 4184 0 4184 0 -50 148
c-218 630 -561 1176 -1043 1658 -497 497 -1050 839 -1711 1059 -304 101 -580
162 -910 200 -133 15 -603 27 -725 19z m341 -560 c245 -72 458 -312 673 -759
100 -207 275 -713 305 -881 6 -33 16 -75 21 -94 29 -99 69 -293 72 -350 l3
-65 -65 -6 c-36 -4 -533 -7 -1105 -7 -572 0 -1069 3 -1105 7 l-65 6 3 65 c3
57 43 251 72 350 5 19 15 61 21 94 10 58 56 212 125 421 195 592 465 1026 726
1165 128 68 218 84 319 54z m-1171 -161 c0 -10 -21 -49 -46 -88 -133 -205
-311 -638 -444 -1082 -40 -132 -126 -479 -140 -563 -5 -36 -18 -110 -28 -165
l-18 -100 -790 -3 c-434 -2 -813 0 -841 3 -33 4 -53 11 -53 19 0 17 159 293
245 427 282 435 699 843 1160 1134 148 94 247 150 335 191 30 15 82 39 115 55
123 58 259 111 435 170 69 23 70 23 70 2z m2240 -9 c19 -7 85 -30 145 -52 114
-41 168 -63 270 -111 33 -16 85 -40 115 -55 297 -138 691 -420 969 -691 201
-196 389 -423 526 -634 86 -134 245 -410 245 -427 0 -8 -20 -15 -52 -19 -29
-3 -408 -5 -842 -3 l-790 3 -18 100 c-10 55 -23 129 -28 165 -14 84 -100 431
-140 563 -133 444 -311 877 -444 1082 -54 83 -59 109 -18 99 15 -4 43 -13 62
-20z"/>
<path d="M620 4990 l0 -1090 155 0 155 0 2 468 3 467 468 0 467 0 0 158 0 157
160 0 160 0 0 310 0 309 -157 3 -158 3 -3 153 -3 152 -624 0 -625 0 0 -1090z
m1250 470 l0 -310 -470 0 -470 0 0 310 0 310 470 0 470 0 0 -310z"/>
<path d="M3130 5930 l0 -149 -156 -3 -156 -3 1 -157 2 -158 -161 0 -160 0 0
-310 0 -310 315 0 315 0 0 -470 0 -470 158 0 157 0 0 467 0 468 158 3 157 3 0
154 0 155 -160 0 -160 0 2 465 3 465 -157 0 -158 0 0 -150z m0 -625 l0 -155
-155 0 -155 0 0 155 0 155 155 0 155 0 0 -155z"/>
<path d="M4080 4990 l0 -1090 155 0 155 0 0 640 0 640 160 0 160 0 0 -172 0
-173 152 0 153 0 6 -300 c3 -165 7 -306 8 -312 1 -10 38 -13 151 -13 l150 0 0
-155 0 -155 160 0 160 0 0 1090 0 1090 -160 0 -160 0 0 -620 0 -620 -155 0
-155 0 0 170 0 170 -155 0 -155 0 0 295 0 294 -157 3 -158 3 -3 153 -3 152
-154 0 -155 0 0 -1090z"/>
<path d="M6270 5930 l0 -149 -157 -3 -158 -3 0 -155 0 -155 158 -3 157 -3 0
-624 0 -625 -160 0 -160 0 0 -155 0 -155 475 0 476 0 -3 153 -3 152 -157 3
-158 3 0 934 0 935 -155 0 -155 0 0 -150z"/>
<path d="M7520 5925 l0 -155 -155 0 -155 0 0 -780 0 -780 155 0 155 0 0 -155
0 -155 475 0 475 0 0 155 0 155 155 0 155 0 0 155 0 155 -155 0 -155 0 0 -155
0 -155 -475 0 -475 0 0 780 0 780 298 1 c163 0 376 1 472 2 l175 2 3 -157 3
-158 154 0 155 0 0 160 0 160 -155 0 -155 0 0 150 0 150 -475 0 -475 0 0 -155z"/>
<path d="M9092 5303 l3 -778 158 -3 157 -3 0 781 0 780 -160 0 -160 0 2 -777z"/>
<path d="M9097 4203 c-4 -3 -7 -73 -7 -155 l0 -148 160 0 160 0 0 155 0 155
-153 0 c-85 0 -157 -3 -160 -7z"/>
<path d="M871 3563 c401 -1162 1283 -2107 2421 -2594 383 -164 801 -272 1253
-325 211 -25 709 -25 920 0 626 73 1175 249 1695 544 923 523 1634 1375 1979
2375 l50 147 -4184 0 -4184 0 50 -147z m2391 -308 c10 -55 23 -129 28 -165 14
-84 100 -431 140 -563 133 -444 311 -877 444 -1082 54 -83 59 -109 19 -99 -16
4 -44 13 -63 20 -19 7 -84 30 -145 52 -114 41 -168 63 -270 111 -33 16 -85 40
-115 55 -297 138 -691 420 -969 691 -201 196 -389 423 -526 634 -86 134 -245
410 -245 427 0 7 12 15 28 17 15 2 393 4 841 3 l815 -1 18 -100z m2838 96 l65
-6 -3 -65 c-3 -57 -43 -251 -72 -350 -5 -19 -15 -61 -21 -94 -10 -58 -56 -212
-125 -421 -196 -598 -467 -1030 -732 -1168 -167 -87 -267 -87 -434 0 -265 138
-536 570 -732 1168 -69 209 -115 363 -125 421 -6 33 -16 75 -21 94 -29 99 -69
293 -72 350 l-3 65 60 6 c82 8 2134 8 2215 0z m2293 3 c20 -4 37 -12 37 -19 0
-16 -161 -294 -245 -426 -282 -435 -699 -843 -1160 -1134 -148 -94 -247 -150
-335 -191 -30 -15 -82 -39 -115 -55 -102 -48 -156 -70 -270 -111 -60 -22 -126
-45 -145 -52 -19 -7 -47 -16 -62 -20 -41 -10 -36 16 18 99 173 266 390 839
524 1382 44 180 57 241 91 443 6 36 12 71 14 78 4 9 174 12 807 12 442 0 820
-3 841 -6z"/>
</g>
</svg>
